:SAMPLES-PER-SECOND 30
:FULLY-SPECIFIED
:DEGREES
671
root  9.05607 34.6071 70.1049 4.15224 37.9312 -6.48636
LeftUpLeg  -29.4037 20.2086 -6.87727
LeftLeg  4.33064 4.6577 0.0521943
LeftFoot  7.51833 -0.0387207 0.589306
LeftToes  -21.2966 6.91067e-007 1.07128e-007
Spine  3.00279 4.53286 3.4662
Spine1  6.11234 9.06517 6.81479
RightShoulder  0.14707 9.22607 7.00703
RightArm  -42.8958 -20.2518 53.9708
RightForeArm  26.5225 11.8584 2.12033
RightHand  0.991758 -10.4164 -10.4715
LeftShoulder1  -0.00436167 2.89583 -8.53018
LeftArm  -14.489 23.9828 -77.0113
LeftForeArm  24.1559 -33.5415 -6.70862
LeftHand  0.120782 5.77528 2.02177
HEad  -25.2385 71.0282 -31.2517
RightUpLeg  -7.72524 -16.7032 6.11368
RightLeg  11.1908 -9.5516 -1.24928
RightFoot  -3.81982 0.00744461 0.60091
RightToes  -31.6819 -0.155672 -0.263484
672
root  9.36474 34.544 70.8573 3.90386 39.2515 -6.159
LeftUpLeg  -28.1344 18.4128 -6.28884
LeftLeg  5.36298 7.63844 0.222918
LeftFoot  10.7155 -0.133057 1.41868
LeftToes  -10.5792 6.91067e-007 1.07128e-007
Spine  2.91104 4.30773 3.06017
Spine1  5.89994 8.67307 5.98414
RightShoulder  0.138993 9.28353 6.86027
RightArm  -44.2418 -18.8356 54.8439
RightForeArm  25.7101 12.4319 2.22613
RightHand  1.04796 -10.4499 -11.0453
LeftShoulder1  -0.00379824 2.73959 -8.7236
LeftArm  -14.7313 23.8833 -76.3019
LeftForeArm  24.8156 -31.0163 -6.08002
LeftHand  0.090418 5.68906 1.44788
HEad  -26.1978 70.6821 -31.3999
RightUpLeg  -6.74653 -16.907 5.77073
RightLeg  13.246 -10.6067 -1.77244
RightFoot  -5.99685 0.0380556 1.1042
RightToes  -30.6915 -0.148711 -0.256743
673
root  9.78081 34.5067 71.6226 3.77179 39.3271 -5.01744
LeftUpLeg  -25.7365 15.6282 -5.04166
LeftLeg  5.28821 10.9639 0.305007
LeftFoot  14.2244 -0.340599 2.72924
LeftToes  -10.3944 6.91067e-007 1.07128e-007
Spine  2.89004 4.41714 2.20915
Spine1  5.82438 8.93076 4.34475
RightShoulder  0.112941 9.14524 6.80145
RightArm  -44.9271 -17.5781 56.8593
RightForeArm  23.7897 13.6304 2.44872
RightHand  1.10958 -10.6914 -11.4395
LeftShoulder1  -0.00316411 2.6688 -8.70656
LeftArm  -15.2909 23.418 -75.108
LeftForeArm  25.496 -28.0574 -5.38583
LeftHand  0.0768315 5.85536 1.13093
HEad  -26.7248 70.4286 -30.754
RightUpLeg  -5.20901 -15.9433 4.5945
RightLeg  15.2476 -11.7194 -2.37614
RightFoot  -7.79362 0.0854918 1.63272
RightToes  -30.0852 -0.144508 -0.252558
674
root  10.2791 34.5247 72.3081 4.31214 38.4785 -2.98092
LeftUpLeg  -24.7283 15.6072 -5.54792
LeftLeg  8.12569 11.3706 0.87691
LeftFoot  12.1833 -0.261243 2.44751
LeftToes  -7.72252 6.91067e-007 1.07128e-007
Spine  2.74581 4.6275 1.07635
Spine1  5.49232 9.36681 2.17563
RightShoulder  0.0743114 9.10492 6.20485
RightArm  -45.2154 -16.3329 60.0879
RightForeArm  21.9351 14.9795 2.70187
RightHand  1.10927 -10.6413 -11.4917
LeftShoulder1  -0.0024798 2.81722 -8.98646
LeftArm  -16.8969 22.9684 -73.4665
LeftForeArm  26.352 -24.7172 -4.64805
LeftHand  0.0634461 6.22998 0.794972
HEad  -27.1985 70.6127 -30.411
RightUpLeg  -4.12938 -13.6147 2.72539
RightLeg  17.7761 -13.3372 -3.31031
RightFoot  -9.01767 0.144087 2.20476
RightToes  -30.1445 -0.144917 -0.252969
675
root  10.7929 34.6176 72.9541 5.28034 37.8345 -0.726698
LeftUpLeg  -23.6755 16.1225 -6.6898
LeftLeg  10.1628 11.2998 1.274
LeftFoot  10.2737 -0.185858 2.06725
LeftToes  -6.86855 6.91067e-007 1.07128e-007
Spine  2.48819 4.68434 -0.0801064
Spine1  4.93689 9.46287 -0.0461749
RightShoulder  0.0306868 8.75867 5.49149
RightArm  -44.3438 -14.9895 63.9553
RightForeArm  20.4907 17.0989 3.10614
RightHand  1.07957 -10.5327 -11.2952
LeftShoulder1  -0.00176582 2.7236 -9.37489
LeftArm  -19.17 22.5366 -71.6097
LeftForeArm  26.6821 -21.1628 -3.90688
LeftHand  0.100419 6.74867 1.33168
HEad  -27.4907 70.4335 -30.1065
RightUpLeg  -3.63084 -12.0357 0.657241
RightLeg  20.6792 -14.2559 -4.30074
RightFoot  -9.09161 0.163379 2.43244
RightToes  -33.0403 -0.165408 -0.272532
676
root  11.3195 34.7537 73.5472 5.51834 37.3967 0.312899
LeftUpLeg  -21.3506 15.3662 -6.77589
LeftLeg  9.51363 12.4914 1.26449
LeftFoot  9.44983 -0.174393 2.10971
LeftToes  -7.0805 6.91067e-007 1.07128e-007
Spine  2.30883 4.76358 -0.702044
Spine1  4.52542 9.64337 -1.2936
RightShoulder  0.0249112 8.27606 5.07479
RightArm  -41.399 -14.077 66.8839
RightForeArm  19.0834 20.7546 3.82707
RightHand  0.970848 -10.4253 -10.2353
LeftShoulder1  -0.00104267 2.6597 -9.70665
LeftArm  -21.5292 21.8707 -70.514
LeftForeArm  26.9272 -17.8765 -3.25407
LeftHand  0.168046 7.04799 2.356
HEad  -27.3968 69.681 -29.4477
RightUpLeg  -3.77587 -11.7194 -0.739215
RightLeg  24.591 -13.8941 -5.23975
RightFoot  -7.58052 0.109526 2.03087
RightToes  -39.7938 -0.216838 -0.313954
677
root  11.8337 34.893 74.104 5.45255 37.6609 0.459373
LeftUpLeg  -19.1803 14.4034 -6.44497
LeftLeg  8.30157 13.2739 1.06198
LeftFoot  8.89617 -0.164537 2.11489
LeftToes  -6.82088 6.91067e-007 1.07128e-007
Spine  2.10585 4.66878 -0.930215
Spine1  4.09275 9.47391 -1.77287
RightShoulder  0.0233021 7.96992 4.73568
RightArm  -38.8092 -13.363 69.0659
RightForeArm  19.5995 24.1806 4.53654
RightHand  0.7789 -9.89392 -8.60487
LeftShoulder1  -0.00033086 2.71135 -9.74571
LeftArm  -23.2417 21.3412 -70.1721
LeftForeArm  27.0875 -15.7678 -2.84859
LeftHand  0.227425 7.41737 3.13464
HEad  -26.5417 68.2782 -27.5218
RightUpLeg  -4.67576 -12.4914 -1.53376
RightLeg  29.3472 -12.753 -6.05722
RightFoot  -5.08545 0.0411548 1.30445
RightToes  -48.4932 -0.289632 -0.357905
678
root  12.2995 34.9656 74.6262 5.24709 38.5524 0.628611
LeftUpLeg  -18.3269 15.2746 -6.52021
LeftLeg  9.71608 11.4782 1.20398
LeftFoot  7.22352 -0.0939523 1.48836
LeftToes  -6.22318 6.91067e-007 1.07128e-007
Spine  2.01578 4.37512 -1.06135
Spine1  3.90433 8.88681 -2.04438
RightShoulder  0.0232932 7.52839 4.4821
RightArm  -35.8606 -12.685 70.8813
RightForeArm  20.5787 28.0596 5.38954
RightHand  0.637711 -9.38613 -7.38123
LeftShoulder1  0.000349107 2.66923 -9.48394
LeftArm  -23.8201 21.1429 -70.1087
LeftForeArm  27.0405 -15.7739 -2.84977
LeftHand  0.247856 7.66173 3.32727
HEad  -26.5043 66.556 -25.9149
RightUpLeg  -6.16542 -14.6599 -2.46609
RightLeg  35.3828 -10.82 -6.62345
RightFoot  -2.67084 0.00583186 0.627884
RightToes  -55.6526 -0.353977 -0.385473
679
root  12.7201 34.9762 75.1064 5.01678 39.7664 1.02491
LeftUpLeg  -17.4379 15.7925 -6.63803
LeftLeg  11.2507 9.73262 1.28553
LeftFoot  5.46374 -0.0458089 0.959995
LeftToes  -5.83015 6.91067e-007 1.07128e-007
Spine  2.06396 3.99625 -1.16923
Spine1  3.99855 8.12553 -2.25875
RightShoulder  0.0243894 7.08499 4.29538
RightArm  -33.2966 -12.0046 72.486
RightForeArm  21.7769 31.8184 6.27929
RightHand  0.581097 -8.83451 -7.13643
LeftShoulder1  0.000976724 2.39862 -9.29628
LeftArm  -22.8728 20.9666 -69.8053
LeftForeArm  26.2575 -17.0564 -3.0955
LeftHand  0.228442 7.60069 3.06529
HEad  -26.3548 64.9172 -24.1554
RightUpLeg  -8.06281 -17.2803 -3.66245
RightLeg  42.2614 -8.79002 -6.97191
RightFoot  -0.0378376 -0.000114491 0.0314251
RightToes  -58.771 -0.382981 -0.394928
680
root  13.0848 34.961 75.519 5.10198 40.7839 1.88865
LeftUpLeg  -15.9743 15.1468 -6.91529
LeftLeg  11.3727 9.38235 1.25987
LeftFoot  4.49533 -0.0300656 0.765998
LeftToes  -6.07395 6.91067e-007 1.07128e-007
Spine  2.2134 3.71047 -1.36872
Spine1  4.28096 7.56624 -2.65054
RightShoulder  0.0261404 6.75614 4.22991
RightArm  -31.6667 -11.218 73.9512
RightForeArm  22.5571 34.8321 7.04837
RightHand  0.555298 -8.3735 -7.19914
LeftShoulder1  0.00231355 2.14137 -9.29219
LeftArm  -20.9964 20.1393 -69.1214
LeftForeArm  25.4001 -18.3133 -3.33976
LeftHand  0.190522 7.28169 2.62108
HEad  -26.663 63.721 -23.2138
RightUpLeg  -10.5653 -19.0505 -5.0623
RightLeg  49.7336 -6.95187 -7.19726
RightFoot  2.2709 0.0149699 -0.377616
RightToes  -52.6154 -0.326262 -0.374762
681
root  13.3713 34.9398 75.8871 5.13813 41.7856 2.56937
LeftUpLeg  -14.8025 14.6144 -7.04898
LeftLeg  11.6438 8.89517 1.23761
LeftFoot  3.64538 -0.0191255 0.595123
LeftToes  -6.56462 6.91067e-007 1.07128e-007
Spine  2.40421 3.472 -1.5478
Spine1  4.63589 7.1119 -3.00619
RightShoulder  0.0281013 6.66766 4.33851
RightArm  -30.8557 -10.3786 75.2102
RightForeArm  22.5373 36.5876 7.52357
RightHand  0.550493 -8.02526 -7.45932
LeftShoulder1  0.00480701 1.89145 -9.2156
LeftArm  -19.6513 18.8035 -68.4352
LeftForeArm  25.1575 -19.5597 -3.58548
LeftHand  0.16019 6.83633 2.30917
HEad  -27.0295 62.9257 -22.6679
RightUpLeg  -13.3336 -20.1324 -5.97583
RightLeg  56.6731 -5.84695 -7.76202
RightFoot  4.16763 0.0373872 -0.688087
RightToes  -40.4978 -0.222472 -0.317917
682
root  13.6338 34.9508 76.2334 5.019 42.9909 2.79136
LeftUpLeg  -13.7799 13.9968 -6.88542
LeftLeg  11.7756 8.3616 1.18338
LeftFoot  2.99047 -0.0121526 0.465179
LeftToes  -6.89442 6.91067e-007 1.07128e-007
Spine  2.57283 3.24427 -1.60615
Spine1  4.95293 6.67037 -3.11646
RightShoulder  0.0299539 6.52106 4.4616
RightArm  -30.2764 -9.60084 76.1759
RightForeArm  22.013 37.0332 7.64772
RightHand  0.548263 -7.89304 -7.55823
LeftShoulder1  0.00783035 1.70719 -9.28893
LeftArm  -18.7094 16.9913 -67.7526
LeftForeArm  25.0398 -20.3639 -3.74611
LeftHand  0.156129 6.58458 2.34119
HEad  -27.0032 62.135 -22.1578
RightUpLeg  -15.6706 -20.8169 -6.34311
RightLeg  60.818 -4.94252 -7.6829
RightFoot  4.66619 0.0447047 -0.719553
RightToes  -32.5293 -0.16172 -0.269155
683
root  13.8509 34.9906 76.5587 4.7963 44.4616 2.63787
LeftUpLeg  -12.9508 13.4136 -6.48189
LeftLeg  11.7819 7.53637 1.06804
LeftFoot  2.61178 -0.0083027 0.371034
LeftToes  -7.25143 6.91067e-007 1.07128e-007
Spine  2.68601 3.01257 -1.55138
Spine1  5.17053 6.20125 -2.99143
RightShoulder  0.0312567 6.38253 4.59484
RightArm  -30.0464 -9.0154 76.799
RightForeArm  21.9398 36.3002 7.44424
RightHand  0.528954 -7.77336 -7.39755
LeftShoulder1  0.0108794 1.67189 -9.38598
LeftArm  -18.0952 14.6429 -67.3732
LeftForeArm  25.1616 -20.348 -3.74288
LeftHand  0.191411 6.43301 3.03182
HEad  -26.3393 61.1632 -21.3378
RightUpLeg  -17.4797 -20.7238 -6.1904
RightLeg  61.8169 -3.8765 -6.30167
RightFoot  2.9107 0.0214764 -0.34031
RightToes  -31.9491 -0.15757 -0.265282
684
root  14.0227 35.0463 76.8819 4.55883 46.3379 2.16266
LeftUpLeg  -12.3668 12.4714 -5.87299
LeftLeg  11.6482 6.71763 0.936513
LeftFoot  2.46424 -0.0071476 0.314019
LeftToes  -7.71158 6.91067e-007 1.07128e-007
Spine  2.72329 2.72832 -1.3715
Spine1  5.25236 5.59854 -2.60335
RightShoulder  0.0321272 6.26405 4.61729
RightArm  -30.1051 -8.7211 77.1169
RightForeArm  22.0917 34.6923 7.01143
RightHand  0.507944 -7.82474 -7.04096
LeftShoulder1  0.0134499 1.58482 -9.30016
LeftArm  -18.0978 12.2184 -67.5429
LeftForeArm  25.4774 -19.9481 -3.66274
LeftHand  0.233177 6.29898 3.86159
HEad  -25.2944 59.8263 -20.2448
RightUpLeg  -18.9233 -19.7873 -5.57089
RightLeg  59.9018 -3.07181 -4.66507
RightFoot  1.58889 0.00722738 -0.119341
RightToes  -32.9733 -0.164923 -0.272091
